<svg width="32" height="32" viewBox="0 0 64 64" fill="none" xmlns="http://www.w3.org/2000/svg">
<path d="M32 48C40.8366 48 48 40.8366 48 32C48 23.1634 40.8366 16 32 16C23.1634 16 16 23.1634 16 32C16 40.8366 23.1634 48 32 48Z" fill="#CDD4E3"/>
<path d="M42.334 33.334H32C31.264 33.334 30.666 32.736 30.666 32V21.666C30.666 20.93 31.262 20.332 32 20.332C32.736 20.332 33.334 20.93 33.334 21.666V30.666H42.334C43.07 30.666 43.668 31.264 43.668 32C43.668 32.736 43.07 33.334 42.334 33.334Z" fill="white"/>
</svg>
