<svg width="24" height="24" viewBox="0 0 19 19" fill="none" xmlns="http://www.w3.org/2000/svg">
<path d="M6.35504 15.2988C6.35504 15.3773 6.26694 15.4402 6.15585 15.4402C6.02944 15.452 5.94133 15.3891 5.94133 15.2988C5.94133 15.2202 6.02944 15.1573 6.14052 15.1573C6.25544 15.1455 6.35504 15.2084 6.35504 15.2988ZM5.16371 15.122C5.1369 15.2006 5.21351 15.2909 5.32843 15.3145C5.42802 15.3538 5.54294 15.3145 5.56593 15.2359C5.58891 15.1573 5.51613 15.067 5.40121 15.0316C5.30161 15.0041 5.19052 15.0434 5.16371 15.122ZM6.85685 15.0552C6.74577 15.0827 6.66915 15.1573 6.68064 15.2477C6.69214 15.3263 6.79173 15.3773 6.90665 15.3498C7.01774 15.3223 7.09435 15.2477 7.08286 15.1691C7.07137 15.0945 6.96794 15.0434 6.85685 15.0552ZM9.37742 0C4.06431 0 0 4.13703 0 9.58629C0 13.9433 2.67379 17.6718 6.49294 18.984C6.98327 19.0744 7.15565 18.764 7.15565 18.5086C7.15565 18.265 7.14415 16.9214 7.14415 16.0963C7.14415 16.0963 4.4627 16.6856 3.8996 14.9255C3.8996 14.9255 3.4629 13.7823 2.83468 13.4876C2.83468 13.4876 1.95746 12.8708 2.89597 12.8826C2.89597 12.8826 3.8498 12.9611 4.3746 13.8962C5.21351 15.4127 6.61936 14.9766 7.16714 14.7173C7.25524 14.0887 7.50423 13.6526 7.78004 13.3933C5.63871 13.1497 3.47823 12.8315 3.47823 9.05197C3.47823 7.97155 3.76936 7.42937 4.38226 6.7379C4.28266 6.48253 3.95706 5.42961 4.48185 4.07024C5.28246 3.81487 7.125 5.13102 7.125 5.13102C7.89113 4.91101 8.71472 4.79707 9.53065 4.79707C10.3466 4.79707 11.1702 4.91101 11.9363 5.13102C11.9363 5.13102 13.7788 3.81094 14.5794 4.07024C15.1042 5.43354 14.7786 6.48253 14.679 6.7379C15.2919 7.4333 15.6673 7.97548 15.6673 9.05197C15.6673 12.8433 13.4111 13.1458 11.2698 13.3933C11.6222 13.7037 11.921 14.293 11.921 15.2163C11.921 16.5403 11.9095 18.1786 11.9095 18.5007C11.9095 18.7561 12.0857 19.0665 12.5722 18.9761C16.4028 17.6718 19 13.9433 19 9.58629C19 4.13703 14.6905 0 9.37742 0ZM3.72339 13.5505C3.67359 13.5897 3.68508 13.6801 3.7502 13.7548C3.81149 13.8176 3.8996 13.8451 3.9494 13.794C3.99919 13.7548 3.9877 13.6644 3.92258 13.5897C3.86129 13.5269 3.77319 13.4994 3.72339 13.5505ZM3.30968 13.2322C3.28286 13.2833 3.32117 13.3462 3.39778 13.3854C3.45907 13.4247 3.53569 13.4129 3.5625 13.3579C3.58931 13.3069 3.55101 13.244 3.4744 13.2047C3.39778 13.1811 3.33649 13.1929 3.30968 13.2322ZM4.55081 14.6309C4.48952 14.6819 4.5125 14.7998 4.60061 14.8745C4.68871 14.9648 4.7998 14.9766 4.8496 14.9137C4.89939 14.8627 4.87641 14.7448 4.7998 14.6702C4.71552 14.5798 4.60061 14.568 4.55081 14.6309ZM4.11411 14.0533C4.05282 14.0926 4.05282 14.1948 4.11411 14.2851C4.1754 14.3755 4.27883 14.4148 4.32863 14.3755C4.38992 14.3244 4.38992 14.2223 4.32863 14.1319C4.275 14.0416 4.1754 14.0023 4.11411 14.0533Z" fill="#646CEB"/>
</svg>
