<svg xmlns="http://www.w3.org/2000/svg"  viewBox="0 0 32 32" width="105px" height="105px"><path fill="#E3F8FA" d="M26,32H6c-3.314,0-6-2.686-6-6V6c0-3.314,2.686-6,6-6h20c3.314,0,6,2.686,6,6v20C32,29.314,29.314,32,26,32 z"/><path fill="#8CE1EB" d="M16,14.568c-0.791,0-1.431,0.641-1.431,1.431c0,0.791,0.641,1.431,1.431,1.431s1.431-0.641,1.431-1.431 C17.431,15.209,16.791,14.568,16,14.568z"/><path fill="#26C6DA" d="M11.009,18.534c0.141,0.047,0.281,0.094,0.425,0.135c-0.047,0.187-0.087,0.372-0.125,0.563 c-0.328,1.735-0.072,3.109,0.747,3.581c0.844,0.487,2.263-0.013,3.644-1.222c0.109-0.097,0.219-0.197,0.328-0.303 c0.137,0.135,0.281,0.263,0.425,0.387c1.337,1.15,2.659,1.615,3.476,1.144c0.844-0.487,1.119-1.965,0.763-3.765 c-0.028-0.137-0.059-0.278-0.094-0.422c0.1-0.028,0.197-0.059,0.294-0.091c1.803-0.597,3.11-1.563,3.11-2.553 c0-0.947-1.231-1.865-2.931-2.45v-0.001c-0.169-0.056-0.337-0.109-0.506-0.159c0.028-0.115,0.053-0.231,0.078-0.347 c0.385-1.862,0.131-3.359-0.722-3.853c-0.822-0.472-2.163,0.019-3.519,1.2c-0.135,0.115-0.265,0.237-0.391,0.359 c-0.085-0.081-0.172-0.163-0.259-0.241c-1.422-1.263-2.847-1.794-3.7-1.297c-0.819,0.475-1.063,1.885-0.719,3.646 c0.035,0.175,0.072,0.347,0.115,0.522c-0.2,0.056-0.397,0.119-0.581,0.185C9.196,14.131,8,15.043,8,15.987 C8,16.962,9.274,17.94,11.009,18.534z M15.259,21.08c-0.515,0.472-1.113,0.847-1.763,1.103c-0.347,0.165-0.747,0.181-1.103,0.041 c-0.497-0.287-0.703-1.391-0.422-2.875c0.035-0.175,0.072-0.35,0.115-0.522c0.7,0.15,1.406,0.253,2.122,0.306 c0.413,0.585,0.865,1.144,1.35,1.668C15.459,20.898,15.359,20.992,15.259,21.08L15.259,21.08z M19.228,15.212 c-0.147-0.275-0.297-0.55-0.453-0.819c-0.153-0.265-0.313-0.528-0.478-0.787c0.503,0.063,0.985,0.147,1.435,0.25 C19.587,14.319,19.419,14.769,19.228,15.212z M19.234,16.768c0.2,0.453,0.375,0.913,0.528,1.385 c-0.485,0.109-0.975,0.194-1.469,0.25c0.169-0.263,0.328-0.531,0.485-0.8C18.937,17.327,19.087,17.049,19.234,16.768z M18.873,15.991c-0.209,0.431-0.435,0.856-0.675,1.275c-0.237,0.415-0.491,0.819-0.756,1.219c-0.465,0.035-0.95,0.05-1.441,0.05 c-0.491,0-0.965-0.015-1.425-0.044c-0.272-0.397-0.528-0.803-0.769-1.218c-0.241-0.415-0.463-0.837-0.672-1.269h-0.001 c0.206-0.431,0.431-0.853,0.669-1.269c0.237-0.415,0.494-0.819,0.763-1.215c0.469-0.035,0.947-0.053,1.435-0.053 s0.969,0.019,1.435,0.053c0.265,0.394,0.519,0.797,0.759,1.209C18.436,15.141,18.66,15.563,18.873,15.991z M13.221,14.399 c-0.153,0.265-0.303,0.537-0.444,0.812c-0.197-0.465-0.362-0.921-0.5-1.362c0.45-0.1,0.928-0.181,1.425-0.244 C13.537,13.865,13.375,14.13,13.221,14.399z M12.778,16.792L12.778,16.792c0.144,0.275,0.291,0.547,0.447,0.816 c0.159,0.272,0.322,0.544,0.494,0.809c-0.487-0.053-0.972-0.131-1.45-0.235C12.406,17.733,12.578,17.268,12.778,16.792z M16.025,20.32L16.025,20.32c-0.319-0.343-0.637-0.724-0.947-1.134c0.3,0.013,0.609,0.019,0.922,0.019 c0.322,0,0.637-0.006,0.95-0.022C16.663,19.579,16.354,19.958,16.025,20.32z M20.11,21.259L20.11,21.259 c-0.029,0.381-0.216,0.737-0.516,0.977c-0.497,0.287-1.556-0.087-2.7-1.069c-0.131-0.113-0.263-0.235-0.397-0.359 c0.478-0.528,0.919-1.087,1.319-1.674c0.715-0.059,1.428-0.169,2.131-0.328c0.031,0.128,0.059,0.256,0.085,0.381 C20.186,19.862,20.21,20.565,20.11,21.259z M20.382,14.021c0.163,0.047,0.319,0.097,0.469,0.147 c1.456,0.5,2.478,1.244,2.478,1.813c0,0.613-1.091,1.403-2.65,1.918c-0.087,0.028-0.175,0.056-0.265,0.081 c-0.219-0.681-0.487-1.347-0.797-1.994C19.916,15.349,20.17,14.693,20.382,14.021z M16.84,10.884L16.84,10.884 c1.163-1.012,2.247-1.409,2.742-1.125c0.528,0.303,0.731,1.528,0.4,3.137c-0.022,0.106-0.044,0.209-0.072,0.313 c-0.694-0.156-1.397-0.269-2.103-0.331c-0.406-0.581-0.85-1.137-1.331-1.659C16.597,11.103,16.715,10.993,16.84,10.884z M16.006,11.697c0.328,0.356,0.637,0.731,0.925,1.118c-0.619-0.028-1.241-0.028-1.859,0 C15.378,12.412,15.694,12.037,16.006,11.697z M12.381,9.781C12.907,9.475,14.072,9.912,15.3,11 c0.078,0.069,0.156,0.144,0.237,0.219c-0.485,0.522-0.931,1.078-1.341,1.659c-0.706,0.063-1.406,0.172-2.1,0.325 c-0.041-0.159-0.075-0.322-0.109-0.485C11.693,11.206,11.887,10.065,12.381,9.781z M11.084,14.187 c0.178-0.063,0.359-0.119,0.541-0.172c0.213,0.678,0.469,1.344,0.765,1.987c-0.3,0.653-0.559,1.328-0.775,2.015l-0.001,0.001 c-0.131-0.037-0.259-0.078-0.387-0.122c-0.665-0.209-1.422-0.541-1.969-0.975c-0.315-0.219-0.528-0.556-0.587-0.935 C8.672,15.415,9.659,14.683,11.084,14.187z"/></svg>