<svg width="32" height="32" viewBox="0 0 32 32" fill="none" xmlns="http://www.w3.org/2000/svg">
<path d="M26.5 3H5.5C3.56975 3 2 4.52894 2 6.40901V24.591C2 26.4711 3.56975 28 5.5 28H26.5C28.4303 28 30 26.4711 30 24.591V6.40901C30 4.52894 28.4303 3 26.5 3ZM26.5 25.7262H5.5C4.856 25.7262 4.33275 25.2165 4.33275 24.5893V8.68112H27.6672V24.5893C27.6672 25.2165 27.144 25.7262 26.5 25.7262Z" fill="#BE63F9"/>
<path d="M10.3987 23C10.0396 23 9.68257 22.8903 9.40954 22.671C8.86349 22.2323 8.86349 21.5202 9.40954 21.0799L12.6208 18.5L9.40954 15.9201C8.86349 15.4814 8.86349 14.7694 9.40954 14.329C9.9556 13.8903 10.8419 13.8903 11.39 14.329L15.5905 17.7036C16.1365 18.1423 16.1365 18.8543 15.5905 19.2947L11.39 22.6693C11.1149 22.8903 10.7558 23 10.3987 23Z" fill="#D9A4FC"/>
<path d="M21.9983 23H17.9988C17.4469 23 17 22.3298 17 21.5C17 20.6702 17.4469 20 18.0002 20H21.9998C22.5531 20 23 20.6724 23 21.5C23 22.3276 22.5516 23 21.9983 23Z" fill="#D9A4FC"/>
</svg>
