<svg xmlns="http://www.w3.org/2000/svg"  viewBox="0 0 32 32" width="21px" height="21px"><path fill="#F5E6FE" d="M26,32H6c-3.314,0-6-2.686-6-6V6c0-3.314,2.686-6,6-6h20c3.314,0,6,2.686,6,6v20C32,29.314,29.314,32,26,32 z"/><path fill="#BE63F9" d="M15.009,16.118c-0.065-0.065-0.15-0.098-0.236-0.098s-0.171,0.033-0.236,0.098 c-0.13,0.13-0.13,0.341,0,0.471l1.178,1.178c0.13,0.13,0.341,0.13,0.471,0s0.13-0.341,0-0.471L15.009,16.118z"/><path fill="#BE63F9" d="M22.198,7.999H16.27c-0.474,0-0.939,0.193-1.274,0.528l-6.468,6.468c-0.703,0.702-0.703,1.846,0,2.549 l5.928,5.928C14.807,23.824,15.269,24,15.73,24c0.462,0,0.923-0.176,1.275-0.527l6.468-6.468c0.335-0.335,0.528-0.8,0.528-1.274 V9.802C24.001,8.808,23.192,7.999,22.198,7.999z M15.598,13.643c0.324-0.326,0.854-0.326,1.178,0c0.325,0.325,0.325,0.854,0,1.178 c-0.162,0.163-0.376,0.243-0.589,0.243s-0.427-0.081-0.589-0.243C15.273,14.497,15.273,13.968,15.598,13.643z M15.362,20.007 c-0.098,0.098-0.225,0.146-0.354,0.146s-0.256-0.049-0.354-0.146l-2.004-2.004l-0.118,0.118c-0.195,0.195-0.512,0.195-0.707,0 c-0.195-0.195-0.195-0.512,0-0.707l0.471-0.471c0.195-0.195,0.512-0.195,0.707,0l2.357,2.357 C15.558,19.495,15.558,19.812,15.362,20.007z M16.894,18.474c-0.26,0.26-0.602,0.39-0.943,0.39s-0.683-0.13-0.943-0.39 l-1.178-1.178c-0.52-0.52-0.52-1.366,0-1.885c0.52-0.52,1.366-0.52,1.885,0l1.178,1.178C17.414,17.109,17.414,17.955,16.894,18.474 z M18.128,17.086c-0.019,0.003-0.038,0.003-0.056,0.003c-0.251,0-0.468-0.189-0.496-0.445l-0.471-4.243 c-0.031-0.275,0.167-0.521,0.441-0.552c0.277-0.031,0.522,0.167,0.552,0.441l0.471,4.243C18.6,16.808,18.402,17.055,18.128,17.086z M20.076,15.293c-0.162,0.163-0.376,0.243-0.589,0.243s-0.427-0.081-0.589-0.243c-0.325-0.325-0.325-0.854,0-1.178 c0.324-0.326,0.854-0.326,1.178,0C20.401,14.439,20.401,14.968,20.076,15.293z M21,12c-0.552,0-1-0.448-1-1c0-0.552,0.448-1,1-1 c0.552,0,1,0.448,1,1C22,11.552,21.553,12,21,12z"/></svg>