<svg xmlns="http://www.w3.org/2000/svg"  viewBox="0 0 32 32" width="48px" height="48px"><path fill="#F5E6FE" d="M26,32H6c-3.314,0-6-2.686-6-6V6c0-3.314,2.686-6,6-6h20c3.314,0,6,2.686,6,6v20C32,29.314,29.314,32,26,32z"/><path fill="#BE63F9" d="M16.473,9.333c2.588,0,4.693,2.114,4.693,4.713c0,0.97-0.295,1.905-0.852,2.702	c-0.716,1.023-1.094,2.223-1.094,3.471v2.447h-4.187v-1.1v-1.798l-1.721,0.522c-0.493,0.149-0.894,0.271-1.389,0.421l-0.003,0.001	c-0.075-0.003-0.141-0.072-0.141-0.147V18.78v-1.333h-1.333h-0.202l1.033-1.64c0.329-0.526,0.503-1.135,0.503-1.76	C11.78,11.448,13.885,9.333,16.473,9.333L16.473,9.333z M16.473,8c-3.32,0-6.027,2.713-6.027,6.047c0,0.373-0.1,0.733-0.3,1.053	l-1.52,2.413C8.547,17.653,8.5,17.8,8.5,17.953c0,0.46,0.367,0.827,0.827,0.827h1.12v1.787c0,0.813,0.667,1.48,1.48,1.48	c0.16,0,0.313-0.027,0.433-0.073l1.34-0.407V23.5c0,0.273,0.227,0.5,0.5,0.5h5.853c0.273,0,0.5-0.227,0.5-0.5v-3.28	c0-0.973,0.293-1.907,0.853-2.707c0.713-1.02,1.093-2.22,1.093-3.467C22.5,10.713,19.8,8,16.473,8L16.473,8z"/><path fill="#D9A4FC" d="M14.667,15.127c0.207,0.187,0.22,0.5,0.04,0.707C14.607,15.947,14.473,16,14.333,16	c-0.12,0-0.24-0.04-0.333-0.127l-1.667-1.5C12.227,14.28,12.167,14.14,12.167,14c0-0.14,0.06-0.28,0.167-0.373l1.667-1.5	c0.207-0.18,0.52-0.167,0.707,0.04c0.18,0.207,0.167,0.52-0.04,0.707L13.413,14L14.667,15.127z"/><path fill="#D9A4FC" d="M17.487,11.947l-1,4.333c-0.056,0.246-0.28,0.427-0.6,0.373c-0.267-0.06-0.433-0.333-0.373-0.6l1-4.333	c0.06-0.267,0.333-0.433,0.6-0.373C17.38,11.407,17.547,11.68,17.487,11.947z"/><path fill="#D9A4FC" d="M20.667,14.373L19,15.873C18.907,15.96,18.787,16,18.667,16c-0.14,0-0.273-0.053-0.373-0.167	c-0.18-0.207-0.167-0.52,0.04-0.707L19.587,14l-1.253-1.127c-0.207-0.187-0.22-0.5-0.04-0.707c0.187-0.207,0.5-0.22,0.707-0.04	l1.667,1.5c0.107,0.093,0.167,0.233,0.167,0.373C20.833,14.14,20.773,14.28,20.667,14.373z"/></svg>