<svg xmlns="http://www.w3.org/2000/svg"  viewBox="0 0 32 32" width="21px" height="21px"><path fill="#F5E6FE" d="M26,32H6c-3.314,0-6-2.686-6-6V6c0-3.314,2.686-6,6-6h20c3.314,0,6,2.686,6,6v20C32,29.314,29.314,32,26,32z"/><path fill="#BE63F9" d="M17.237,23.996c-0.499,0-0.997-0.187-1.379-0.56l-7.267-7.117c-0.377-0.369-0.593-0.884-0.592-1.412	l0.014-5.578c0.003-0.724,0.592-1.313,1.315-1.315l5.578-0.014c0.54-0.029,1.044,0.214,1.413,0.592l7.117,7.267	c0.752,0.768,0.746,2.012-0.014,2.772l0,0l-4.792,4.792C18.247,23.804,17.742,23.996,17.237,23.996z M14.912,9.332	c-0.001,0-0.001,0-0.002,0L9.332,9.346l0.001,5.564c0,0.171,0.07,0.337,0.191,0.457l7.267,7.117c0.247,0.243,0.65,0.241,0.896-0.005	l4.792-4.792c0.245-0.246,0.247-0.648,0.004-0.896l-7.117-7.267C15.247,9.402,15.082,9.332,14.912,9.332z M22.951,18.158h0.007	H22.951z"/><path fill="#BE63F9" d="M11.35,12.665c-0.735,0-1.333-0.598-1.333-1.333s0.598-1.333,1.333-1.333c0.735,0,1.333,0.598,1.333,1.333	S12.085,12.665,11.35,12.665z"/><path fill="#D9A4FC" d="M18.833,15.332h-1.333c-0.276,0-0.5-0.224-0.5-0.5s0.224-0.5,0.5-0.5h1.333c0.276,0,0.5,0.224,0.5,0.5	S19.109,15.332,18.833,15.332z"/><path fill="#D9A4FC" d="M18.833,16.999h-1.333c-0.276,0-0.5-0.224-0.5-0.5s0.224-0.5,0.5-0.5h1.333c0.276,0,0.5,0.224,0.5,0.5	S19.109,16.999,18.833,16.999z"/><path fill="#D9A4FC" d="M13.833,15.332h-1.333c-0.276,0-0.5-0.224-0.5-0.5s0.224-0.5,0.5-0.5h1.333c0.276,0,0.5,0.224,0.5,0.5	S14.109,15.332,13.833,15.332z"/><path fill="#D9A4FC" d="M13.833,16.999h-1.333c-0.276,0-0.5-0.224-0.5-0.5s0.224-0.5,0.5-0.5h1.333c0.276,0,0.5,0.224,0.5,0.5	S14.109,16.999,13.833,16.999z"/><path fill="#D9A4FC" d="M16.499,19.332c-0.276,0-0.5-0.224-0.5-0.5v-1.333c0-0.276,0.224-0.5,0.5-0.5s0.5,0.224,0.5,0.5v1.333	C16.999,19.108,16.775,19.332,16.499,19.332z"/><path fill="#D9A4FC" d="M14.666,19.332c-0.276,0-0.5-0.224-0.5-0.5v-1.333c0-0.276,0.224-0.5,0.5-0.5c0.276,0,0.5,0.224,0.5,0.5	v1.333C15.166,19.108,14.942,19.332,14.666,19.332z"/><path fill="#D9A4FC" d="M16.499,14.332c-0.276,0-0.5-0.224-0.5-0.5v-1.333c0-0.276,0.224-0.5,0.5-0.5s0.5,0.224,0.5,0.5v1.333	C16.999,14.108,16.775,14.332,16.499,14.332z"/><path fill="#D9A4FC" d="M14.833,14.332c-0.276,0-0.5-0.224-0.5-0.5v-1.333c0-0.276,0.224-0.5,0.5-0.5s0.5,0.224,0.5,0.5v1.333	C15.333,14.108,15.109,14.332,14.833,14.332z"/><path fill="#D9A4FC" d="M16.833,17.999h-2.333c-0.643,0-1.167-0.523-1.167-1.167v-2.333c0-0.643,0.523-1.167,1.167-1.167h2.333	c0.643,0,1.167,0.523,1.167,1.167v2.333C17.999,17.475,17.476,17.999,16.833,17.999z"/></svg>