<svg width="105" height="105" viewBox="0 0 105 105" fill="none" xmlns="http://www.w3.org/2000/svg">
<path d="M74.76 9.29469C75.1713 9.49594 87.2025 15.2359 93.0781 18.0403C95.0184 18.9656 96.25 20.9212 96.25 23.0694V81.8256C96.25 83.9716 95.0272 85.925 93.0934 86.8547C87.5197 89.5409 76.4444 94.8741 75.7072 95.2241C75.1647 95.4822 73.7384 96.25 72.5834 96.25C71.1003 96.25 70.105 95.5588 69.1272 94.6531L74.375 78.1178V12.5016L69.4444 10.0187C70.4988 8.98844 71.96 8.75 72.8241 8.75C73.6159 8.75 74.2613 9.05188 74.76 9.29469Z" fill="url(#paint0_linear_328_7)"/>
<path d="M19.6875 74.1475L74.375 32.5347V12.7531C74.375 9.91156 70.7394 8.79812 69.2628 10.1631C67.83 11.4844 10.1894 63.9603 10.1894 63.9603C8.22063 65.7759 8.3322 68.9194 10.4234 70.5928C10.4234 70.5928 13.3197 73.2878 14.3675 74.0359C15.9775 75.1844 18.0928 75.3156 19.6875 74.1475Z" fill="url(#paint1_linear_328_7)"/>
<path d="M19.9064 30.8153L74.5938 72.4959V91.6825C74.5938 94.3031 71.4876 96.4797 69.346 94.6159L10.4082 41.0025C8.43948 39.1869 8.55104 36.0434 10.6423 34.37C10.6423 34.37 13.5385 31.675 14.5864 30.9269C16.1964 29.7784 18.3117 29.6472 19.9064 30.8153Z" fill="#0288D1"/>
<defs>
<linearGradient id="paint0_linear_328_7" x1="82.6875" y1="94.8719" x2="82.6875" y2="16.2312" gradientUnits="userSpaceOnUse">
<stop stop-color="#29B6F6"/>
<stop offset="1" stop-color="#13B2F6"/>
</linearGradient>
<linearGradient id="paint1_linear_328_7" x1="13.3109" y1="76.1272" x2="76.1097" y2="15.6909" gradientUnits="userSpaceOnUse">
<stop offset="0.115" stop-color="#0076BB"/>
<stop offset="0.257" stop-color="#0069B0"/>
<stop offset="0.28" stop-color="#0069B0"/>
<stop offset="0.424" stop-color="#0069B0"/>
<stop offset="0.491" stop-color="#0072B7"/>
<stop offset="0.577" stop-color="#0076BB"/>
<stop offset="0.795" stop-color="#0076BB"/>
<stop offset="1" stop-color="#006EB9"/>
</linearGradient>
</defs>
</svg>
