<svg xmlns="http://www.w3.org/2000/svg"  viewBox="0 0 32 32" width="21px" height="21px"><path fill="#FFE6E2" d="M26,32H6c-3.314,0-6-2.686-6-6V6c0-3.314,2.686-6,6-6h20c3.314,0,6,2.686,6,6v20C32,29.314,29.314,32,26,32z"/><path fill="#FC573B" d="M15.5,11.991h-1.667c-1.011,0-1.833,0.822-1.833,1.833v6.167c0,2.036,1.53,3.718,3.5,3.965V11.991z"/><path fill="#FC573B" d="M18.167,11.991H16.5v11.965c1.97-0.247,3.5-1.929,3.5-3.965v-6.167C20,12.814,19.178,11.991,18.167,11.991z"/><path fill="#FD907E" d="M23.394,22.631l-1.5-2.333c-0.08-0.124-0.198-0.218-0.337-0.268l-0.891-0.318v0.279	c0,0.376-0.049,0.739-0.134,1.089l0.362,0.129l1.377,2.143c0.128,0.198,0.342,0.306,0.562,0.306c0.123,0,0.248-0.034,0.36-0.106	C23.504,23.353,23.593,22.941,23.394,22.631z"/><path fill="#FD907E" d="M23.888,15.788c-0.205-0.306-0.619-0.389-0.924-0.185l-1.832,1.221h-0.465v1.333h0.667	c0.132,0,0.26-0.039,0.37-0.112l2-1.333C24.009,16.508,24.092,16.095,23.888,15.788z"/><path fill="#FD907E" d="M22.311,10.84c-0.359-0.077-0.716,0.147-0.795,0.507l-0.585,2.632l-0.264,0.088v1.405l1.044-0.348	c0.222-0.074,0.389-0.259,0.44-0.488l0.667-3C22.897,11.276,22.671,10.92,22.311,10.84z"/><path fill="#FD907E" d="M11.333,14.066l-0.264-0.088l-0.585-2.632c-0.08-0.359-0.438-0.583-0.795-0.507	c-0.359,0.08-0.586,0.436-0.506,0.796l0.667,3c0.051,0.229,0.218,0.414,0.44,0.488l1.044,0.348V14.066z"/><path fill="#FD907E" d="M11.333,16.825h-0.465l-1.832-1.221c-0.306-0.204-0.72-0.121-0.924,0.185	c-0.204,0.307-0.121,0.72,0.185,0.924l2,1.333c0.109,0.073,0.238,0.112,0.37,0.112h0.667V16.825z"/><path fill="#FD907E" d="M11.333,19.991v-0.446l-0.891,0.318c-0.139,0.049-0.257,0.144-0.337,0.268l-1.5,2.333	c-0.199,0.31-0.109,0.723,0.201,0.921c0.111,0.072,0.236,0.106,0.36,0.106c0.219,0,0.434-0.108,0.562-0.306l1.377-2.143l0.323-0.115	C11.366,20.625,11.333,20.312,11.333,19.991z"/><path fill="#FC573B" d="M13.833,11.325h4.333c0.161,0,0.318,0.018,0.471,0.048C18.493,10.037,17.373,8.991,16,8.991	s-2.493,1.046-2.638,2.381C13.515,11.343,13.672,11.325,13.833,11.325z"/><path fill="#FD907E" d="M20.333,7.991c-0.914,0-1.723,0.419-2.274,1.066c0.355,0.284,0.657,0.632,0.872,1.04	c0.296-0.463,0.812-0.772,1.402-0.772C20.702,9.325,21,9.026,21,8.658C21,8.289,20.702,7.991,20.333,7.991z"/><path fill="#FD907E" d="M13.068,10.097c0.215-0.408,0.517-0.756,0.872-1.04c-0.551-0.646-1.36-1.066-2.274-1.066	C11.298,7.991,11,8.289,11,8.658c0,0.368,0.299,0.667,0.667,0.667C12.256,9.325,12.772,9.634,13.068,10.097z"/></svg>