<svg width="21" height="21" viewBox="0 0 32 32" fill="none" xmlns="http://www.w3.org/2000/svg">
<path d="M26 32H6C2.686 32 0 29.314 0 26V6C0 2.686 2.686 0 6 0H26C29.314 0 32 2.686 32 6V26C32 29.314 29.314 32 26 32Z" fill="#FFF9DD"/>
<path d="M23.122 14.263L21.869 14.103C21.766 13.785 21.639 13.478 21.489 13.187L22.263 12.191C22.576 11.787 22.54 11.218 22.182 10.871L21.132 9.821C20.782 9.46 20.213 9.424 19.808 9.736L18.812 10.51C18.521 10.361 18.214 10.234 17.896 10.131L17.738 8.88C17.677 8.378 17.251 8 16.747 8H15.254C14.749 8 14.323 8.378 14.263 8.878L14.103 10.131C13.785 10.235 13.478 10.361 13.187 10.51L12.191 9.736C11.788 9.423 11.219 9.459 10.871 9.817L9.821 10.867C9.46 11.218 9.423 11.787 9.736 12.191L10.51 13.187C10.361 13.478 10.234 13.785 10.13 14.103L8.88 14.262C8.378 14.323 8 14.749 8 15.253V16.746C8 17.251 8.378 17.677 8.878 17.737L10.131 17.897C10.234 18.215 10.361 18.522 10.511 18.813L9.737 19.809C9.424 20.213 9.46 20.782 9.818 21.129L10.868 22.179C11.219 22.54 11.787 22.576 12.191 22.263L13.187 21.489C13.478 21.638 13.785 21.765 14.103 21.869L14.262 23.12C14.322 23.622 14.748 24 15.253 24H16.746C17.251 24 17.677 23.622 17.737 23.122L17.897 21.869C18.215 21.766 18.522 21.639 18.813 21.489L19.809 22.263C20.212 22.576 20.782 22.54 21.129 22.182L22.179 21.132C22.54 20.781 22.577 20.212 22.264 19.808L21.49 18.812C21.639 18.521 21.766 18.214 21.87 17.896L23.121 17.737C23.623 17.677 24.001 17.251 24.001 16.746V15.253C24 14.749 23.622 14.323 23.122 14.263V14.263ZM16 19.333C14.162 19.333 12.667 17.838 12.667 16C12.667 14.162 14.162 12.667 16 12.667C17.838 12.667 19.333 14.162 19.333 16C19.333 17.838 17.838 19.333 16 19.333V19.333Z" fill="#FFD200"/>
</svg>
