<svg width="28" height="24" viewBox="0 0 23 20" fill="none" xmlns="http://www.w3.org/2000/svg">
<path d="M21.2957 17.86C21.3438 17.8605 21.3914 17.8511 21.4357 17.8324C21.48 17.8137 21.5199 17.7861 21.5531 17.7513C21.5862 17.7166 21.6119 17.6753 21.6285 17.6302C21.645 17.5851 21.6521 17.5371 21.6494 17.4891C21.6494 17.2261 21.4907 17.1004 21.1651 17.1004H20.639V18.4776H20.8369V17.8773H21.08L21.0856 17.8846L21.4629 18.4776H21.6745L21.2686 17.8638L21.2957 17.86ZM21.0669 17.7221H20.8375V17.2565H21.1283C21.2785 17.2565 21.4498 17.281 21.4498 17.4777C21.4498 17.7039 21.2764 17.7221 21.0657 17.7221H21.0669ZM16.1344 16.1342H13.3286V11.7403C13.3286 10.6926 13.3099 9.34377 11.8694 9.34377C10.4081 9.34377 10.1845 10.4853 10.1845 11.664V16.1339H7.37876V7.09831H10.0723V8.33312H10.11C10.3795 7.87224 10.769 7.49309 11.237 7.23606C11.705 6.97904 12.2339 6.85376 12.7675 6.87356C15.6112 6.87356 16.1355 8.74404 16.1355 11.1774L16.1344 16.1342ZM4.21297 5.86321C3.89094 5.86327 3.57613 5.76783 3.30834 5.58897C3.04056 5.41011 2.83182 5.15586 2.70853 4.85836C2.58524 4.56087 2.55294 4.2335 2.61571 3.91765C2.67848 3.6018 2.8335 3.31166 3.06116 3.08391C3.28883 2.85616 3.57892 2.70104 3.89475 2.63816C4.21057 2.57528 4.53796 2.60746 4.83549 2.73064C5.13303 2.85382 5.38735 3.06247 5.56631 3.33019C5.74527 3.59791 5.84082 3.91269 5.84087 4.23472C5.84091 4.44854 5.79884 4.66027 5.71705 4.85782C5.63526 5.05538 5.51536 5.23489 5.36419 5.38611C5.21303 5.53733 5.03356 5.6573 4.83603 5.73916C4.6385 5.82102 4.42679 5.86317 4.21297 5.86321ZM5.61583 16.1342H2.80719V7.09831H5.61583V16.1342ZM17.5331 0.00128962H1.39731C1.03107 -0.00284337 0.678174 0.138593 0.416165 0.39452C0.154156 0.650446 0.00446973 0.999924 0 1.36616V17.5689C0.00431675 17.9353 0.153907 18.2851 0.415907 18.5412C0.677907 18.7974 1.03089 18.9391 1.39731 18.9353H17.5331C17.9003 18.9399 18.2543 18.7985 18.5173 18.5424C18.7803 18.2862 18.9309 17.9361 18.936 17.5689V1.36499C18.9308 0.998028 18.7801 0.648154 18.517 0.392234C18.254 0.136314 17.9001 -0.00471919 17.5331 0.000120572" fill="#646CEB"/>
<path d="M21.0909 16.487C20.7495 16.4903 20.4233 16.6286 20.1837 16.8717C19.9441 17.1148 19.8104 17.443 19.8121 17.7843C19.8137 18.1257 19.9505 18.4525 20.1925 18.6933C20.4344 18.9342 20.7619 19.0693 21.1033 19.0693C21.4447 19.0693 21.7722 18.9342 22.0141 18.6933C22.2561 18.4525 22.3929 18.1257 22.3945 17.7843C22.3961 17.443 22.2625 17.1148 22.0229 16.8717C21.7832 16.6286 21.4571 16.4903 21.1157 16.487H21.0909ZM21.0909 18.9215C20.867 18.9252 20.647 18.8625 20.4588 18.7412C20.2705 18.6199 20.1225 18.4455 20.0333 18.2401C19.9442 18.0347 19.918 17.8074 19.958 17.5871C19.9981 17.3668 20.1025 17.1632 20.2582 17.0023C20.4139 16.8413 20.6138 16.7301 20.8327 16.6828C21.0516 16.6355 21.2795 16.6541 21.4878 16.7363C21.6961 16.8186 21.8753 16.9607 22.0028 17.1448C22.1303 17.3289 22.2004 17.5467 22.2041 17.7706V17.7896C22.2104 18.0833 22.0997 18.3675 21.8965 18.5796C21.6933 18.7918 21.4141 18.9146 21.1204 18.9209H21.0912" fill="#646CEB"/>
</svg>
