<svg width="28" height="24" viewBox="0 0 23 19" fill="none" xmlns="http://www.w3.org/2000/svg">
<path d="M7.23325 19C15.9129 19 20.6595 11.6909 20.6595 5.3527C20.6595 5.14512 20.6553 4.93848 20.6462 4.7327C21.5697 4.05346 22.3667 3.2124 23 2.24895C22.1545 2.631 21.2446 2.88817 20.2902 3.00412C21.2644 2.41024 22.0123 1.47095 22.3652 0.351146C21.4388 0.909736 20.4255 1.30349 19.3687 1.51543C18.5077 0.583125 17.2818 0 15.9243 0C13.3184 0 11.2052 2.14806 11.2052 4.79585C11.2052 5.17226 11.2466 5.53839 11.3276 5.88954C7.40567 5.68894 3.92801 3.78031 1.60056 0.8781C1.18137 1.61003 0.960872 2.44197 0.961588 3.28889C0.961588 4.95299 1.79467 6.42206 3.06151 7.28149C2.31216 7.25825 1.57926 7.05252 0.924387 6.68158C0.923692 6.70174 0.923692 6.72135 0.923692 6.74285C0.923692 9.06577 2.55026 11.0052 4.70946 11.4447C4.30392 11.557 3.88547 11.6138 3.46516 11.6135C3.1675 11.6133 2.87054 11.5844 2.57828 11.527C3.17905 13.4328 4.92108 14.8197 6.98643 14.8584C5.37135 16.1452 3.33681 16.9116 1.1256 16.9116C0.745175 16.9116 0.369384 16.8896 0 16.8452C2.08842 18.2058 4.56822 18.9998 7.23348 18.9998" fill="#646CEB"/>
</svg>
